<svg xmlns="http://www.w3.org/2000/svg" width="152.483" height="161.146" viewBox="0 0 152.483 161.146">
  <g id="Group_16" data-name="Group 16" transform="translate(-2033.394 240.124)">
    <g id="Group_15" data-name="Group 15" transform="translate(2070.168 -231.708)">
      <path id="Path_21" data-name="Path 21" d="M5.092,57.352l2.235,1.365-.241,1.029L0,55.33l.279-1.2L8.591,53.3l-.249,1.061-2.613.258ZM4.9,54.647l-2.392.237c-.541.054-1.026.059-1.5.071l-.005.024c.429.22.869.456,1.3.713l2.051,1.273Z" transform="translate(0 -23.175)" fill="#fff" stroke="#fff" stroke-width="1"/>
      <path id="Path_22" data-name="Path 22" d="M16.7,34.494a5.08,5.08,0,0,1-.76,1.981,3.7,3.7,0,0,1-5.447,1.268,3.934,3.934,0,0,1-1.41-5.684,4.233,4.233,0,0,1,1.273-1.423l.586.643a3.712,3.712,0,0,0-1.11,1.194,2.942,2.942,0,0,0,1.19,4.329,2.874,2.874,0,0,0,4.294-.951,4.1,4.1,0,0,0,.583-1.595Z" transform="translate(-3.655 -13.319)" fill="#fff" stroke="#fff" stroke-width="1"/>
      <path id="Path_23" data-name="Path 23" d="M15.838,21.855l3.369,3.25c1.273,1.229,2.36,1.185,3.094.426.813-.844.777-1.923-.48-3.136l-3.369-3.25.718-.743,3.317,3.2c1.747,1.684,1.578,3.3.388,4.529-1.125,1.165-2.64,1.4-4.4-.3L15.121,22.6Z" transform="translate(-6.574 -8.001)" fill="#fff" stroke="#fff" stroke-width="1"/>
      <path id="Path_24" data-name="Path 24" d="M27.619,12.894a11.61,11.61,0,0,1,1.549-1.21,3.247,3.247,0,0,1,2.212-.675,2.12,2.12,0,0,1,1.49,1,2.323,2.323,0,0,1,.423,1.744,3.27,3.27,0,0,1-1.536,2.059,3.641,3.641,0,0,1-.721.394l1.746,2.64-.851.565Zm2.955,2.615a3.471,3.471,0,0,0,.751-.4,1.692,1.692,0,0,0,.721-2.5c-.576-.869-1.472-.882-2.412-.261a4.284,4.284,0,0,0-.756.6Z" transform="translate(-12.008 -4.778)" fill="#fff" stroke="#fff" stroke-width="1"/>
      <path id="Path_25" data-name="Path 25" d="M54.092,5.212c.713,2.627-.508,4.452-2.454,4.98-2.016.545-3.855-.634-4.479-2.944-.659-2.422.417-4.415,2.455-4.969,2.084-.563,3.863.667,4.478,2.933M48.2,6.94c.441,1.629,1.722,2.852,3.273,2.43s2.055-2.1,1.585-3.833C52.65,4.022,51.431,2.65,49.787,3.1S47.748,5.265,48.2,6.94" transform="translate(-20.42 -0.932)" fill="#fff" stroke="#fff" stroke-width="1"/>
      <path id="Path_26" data-name="Path 26" d="M63.668.2,67.919,0l.044.856-3.234.153.124,2.624,2.987-.142.04.843-2.987.143.17,3.573L64.043,8.1Z" transform="translate(-27.681 0)" fill="#fff" stroke="#fff" stroke-width="1"/>
      <path id="Path_27" data-name="Path 27" d="M85.987,10.369a5.052,5.052,0,0,1-2.116-.137A3.7,3.7,0,0,1,81.04,5.412a3.935,3.935,0,0,1,5-3.041,4.235,4.235,0,0,1,1.738.792l-.44.748a3.712,3.712,0,0,0-1.469-.7A2.939,2.939,0,0,0,82.1,5.637a2.874,2.874,0,0,0,2.185,3.815,4.1,4.1,0,0,0,1.7.081Z" transform="translate(-35.166 -0.968)" fill="#fff" stroke="#fff" stroke-width="1"/>
      <path id="Path_28" data-name="Path 28" d="M96.889,6.064l-1.5,2.947,3.406,1.736L100.3,7.8l.921.468-3.589,7.044-.92-.469,1.682-3.3L94.983,9.8l-1.683,3.3-.908-.463L95.98,5.6Z" transform="translate(-40.169 -2.435)" fill="#fff" stroke="#fff" stroke-width="1"/>
      <path id="Path_29" data-name="Path 29" d="M106.867,20.157l-2.235,1.367-.8-.683,7.16-4.294.94.8-3.054,7.776-.832-.706L109,21.97Zm2.494,1.068.881-2.237c.2-.508.413-.942.619-1.366l-.019-.015c-.391.281-.8.565-1.228.834l-2.073,1.246Z" transform="translate(-45.142 -7.194)" fill="#fff" stroke="#fff" stroke-width="1"/>
      <path id="Path_30" data-name="Path 30" d="M114.446,30.012l6.363-4.695.659.9-1.712,4.412a22.453,22.453,0,0,1-1.224,2.668l.02.012c.8-.7,1.555-1.292,2.547-2.024l2.662-1.964.572.774-6.364,4.7-.612-.832,1.737-4.4a24.862,24.862,0,0,1,1.247-2.757l-.03-.02c-.768.639-1.518,1.223-2.575,2l-2.718,2.007Z" transform="translate(-49.758 -11.007)" fill="#fff" stroke="#fff" stroke-width="1"/>
      <path id="Path_31" data-name="Path 31" d="M125.8,48.874A7.4,7.4,0,0,1,124.46,46.8a3.716,3.716,0,0,1,2.109-5.285,3.965,3.965,0,0,1,5.42,2.373,4.891,4.891,0,0,1,.426,1.958l-.863.094a4.111,4.111,0,0,0-.361-1.743,2.958,2.958,0,0,0-4.161-1.7,2.9,2.9,0,0,0-1.765,4.046,3.337,3.337,0,0,0,.719,1.172l2.176-.909-.62-1.483.757-.317,1.006,2.4Z" transform="translate(-53.932 -17.897)" fill="#fff" stroke="#fff" stroke-width="1"/>
      <path id="Path_32" data-name="Path 32" d="M131.7,60.505l-.559-3.021L128.339,58l.625,3.368-.84.157-.813-4.371,7.774-1.443.779,4.2-.841.156-.593-3.194-2.457.455.56,3.022Z" transform="translate(-55.352 -24.223)" fill="#fff" stroke="#fff" stroke-width="1"/>
    </g>
    <path id="Union_3" data-name="Union 3" d="M95.519,0V40.669a46.247,46.247,0,1,1-92.494,0V0M0,0V40.669a49.271,49.271,0,1,0,98.542,0V0" transform="translate(2060.074 -172.231)" fill="none" stroke="#fff" stroke-width="1.5"/>
    <path id="Union_7" data-name="Union 7" d="M95.519,89.942V49.273a46.247,46.247,0,1,0-92.494,0V89.942M0,89.942V49.273a49.271,49.271,0,1,1,98.542,0V89.942" transform="translate(2060.074 -239.374)" fill="none" stroke="#fff" stroke-width="1.5"/>
    <path id="Union_8" data-name="Union 8" d="M6.874,17.578A23.44,23.44,0,0,1,0,.971.963.963,0,0,1,.958,0H46.009a.964.964,0,0,1,.958.971A23.749,23.749,0,0,1,46.821,3.6a4.631,4.631,0,0,1,3.488-.048,4.429,4.429,0,0,1,2.415,5.86c-1.063,2.788-4,4.3-6.584,5.635-2.918,1.5-3.889,2.2-3.516,3.082a1.261,1.261,0,0,1-.675,1.649,1.235,1.235,0,0,1-.487.1,1.26,1.26,0,0,1-1.161-.774,3.7,3.7,0,0,1-.315-1.431,23.412,23.412,0,0,1-16.5,6.776A23.438,23.438,0,0,1,6.874,17.578Zm36.288-3.789c.592-.344,1.216-.665,1.822-.978,2.189-1.128,4.666-2.406,5.388-4.292a1.918,1.918,0,0,0-1-2.624c-1.009-.4-2.379.028-3.381,1.787A23.369,23.369,0,0,1,43.162,13.789Z" transform="translate(2084.36 -160.713)" fill="none" stroke="#fff" stroke-width="1.5"/>
    <path id="Path_36" data-name="Path 36" d="M59.541,112.846A20.046,20.046,0,0,1,39.671,95.31h3.165a20.055,20.055,0,0,0,18.287,17.467c-.521.05-1.046.069-1.582.069" transform="translate(2048.303 -252.564)" fill="none" stroke="#fff" stroke-width="1.5"/>
    <path id="Path_38" data-name="Path 38" d="M69.742,16.913c0,.076,0,.15,0,.224a13.263,13.263,0,0,1,1.14,11.795,73.457,73.457,0,0,1-4.511,9c-1.24,2.309-2.752,4.488-3.944,6.816-1.579,3.089-2.671,6.291-1.55,10.005-.491-3.516.847-6.284,2.593-8.886,1.326-1.975,2.914-3.771,4.281-5.719A68.656,68.656,0,0,0,72.8,32.5a12.542,12.542,0,0,0-3.06-15.588" transform="translate(2042.078 -232.429)" fill="none" stroke="#fff" stroke-width="1.5"/>
    <path id="Path_39" data-name="Path 39" d="M60.558,44.838c1.19-2.328,2.7-4.509,3.944-6.816a73.277,73.277,0,0,0,4.511-9,13.275,13.275,0,0,0-1.139-11.795,9.733,9.733,0,0,1-2.389,7.236c-2.742,3.466-5.693,6.777-8.27,10.358-2.444,3.4-3.754,7.248-2.929,11.545A19.936,19.936,0,0,0,58.233,54.7a4.87,4.87,0,0,0,.5.521c.112.078.24.167.388.273-.045-.218-.083-.436-.11-.65-1.122-3.716-.03-6.917,1.549-10" transform="translate(2043.953 -232.522)" fill="none" stroke="#fff" stroke-width="1.5"/>
    <path id="Path_40" data-name="Path 40" d="M75.738,46.943c0,.058,0,.114,0,.171a10.151,10.151,0,0,1,.874,9.021,56.443,56.443,0,0,1-3.452,6.883c-.947,1.765-2.1,3.432-3.017,5.212-1.208,2.362-2.042,4.81-1.183,7.652-.379-2.689.644-4.806,1.981-6.8,1.014-1.509,2.228-2.884,3.274-4.374a52.3,52.3,0,0,0,3.857-5.846,9.587,9.587,0,0,0-2.339-11.922" transform="translate(2039.672 -241.25)" fill="none" stroke="#fff" stroke-width="1.5"/>
    <path id="Path_41" data-name="Path 41" d="M68.712,68.3c.913-1.781,2.069-3.449,3.018-5.214a56.407,56.407,0,0,0,3.45-6.881,10.148,10.148,0,0,0-.874-9.023,7.444,7.444,0,0,1-1.826,5.536c-2.1,2.651-4.352,5.183-6.326,7.924a11.153,11.153,0,0,0-2.239,8.828,15.232,15.232,0,0,0,3.021,6.373,4.18,4.18,0,0,0,.378.4c.088.061.186.129.3.208-.031-.167-.061-.333-.083-.5-.859-2.842-.025-5.29,1.183-7.652" transform="translate(2041.107 -241.32)" fill="none" stroke="#fff" stroke-width="1.5"/>
    <path id="Union_6" data-name="Union 6" d="M19.339,27.87c-.409-.01-.809-.055-1.2-.094l-.057-.005a1.051,1.051,0,0,1-.947-.82,5.77,5.77,0,0,1-.2-1.65,8.909,8.909,0,0,1,.085-1.111,7.365,7.365,0,0,1,.865-2.5,8.545,8.545,0,0,1,3.606-3.46,8.231,8.231,0,0,0-2.229.843,6.121,6.121,0,0,0-2.686,3.1,8.455,8.455,0,0,0-.424,1.324c-.068.27-.124.552-.171.848-.033.269-.067.537-.1.805q-.018.183-.032.374l-.007.088c-.01.157-.022.311-.034.469a.472.472,0,0,1-.406.445.53.53,0,0,1-.426-.156.686.686,0,0,1-.176-.327l-.083-.442c-.1-.5-.193-1.007-.276-1.515a7.3,7.3,0,0,1-.083-.852l-.033-.111a9.181,9.181,0,0,0-.5-1.294A6.131,6.131,0,0,0,10.94,18.9a8.116,8.116,0,0,0-2.274-.709,8.555,8.555,0,0,1,3.811,3.234,7.5,7.5,0,0,1,1.018,2.448,10.4,10.4,0,0,1,.151,1.106,5.878,5.878,0,0,1-.1,1.657,1.053,1.053,0,0,1-.9.878l-.069.01c-.384.064-.783.126-1.184.164-.482.044-.976.07-1.474.079l-.183,0a10.5,10.5,0,0,1-2.166-.232,8.481,8.481,0,0,1-3.019-1.244,8.271,8.271,0,0,1-2.514-2.736A11.659,11.659,0,0,1,.9,20.914c-.137-.461-.249-.882-.342-1.288-.087-.372-.15-.742-.207-1.1S.234,17.8.191,17.441C.154,17.1.128,16.767.1,16.429l0-.057c-.025-.3-.043-.608-.057-.91C.022,15.035.007,14.611,0,14.184c-.007-.327,0-.653,0-.98v-.269a.612.612,0,0,1,.324-.595.619.619,0,0,1,.674.1,4.828,4.828,0,0,0,1.361.683,20.747,20.747,0,0,0,2.6.666l1.1.226c.837.17,1.672.342,2.5.526.4.087.773.182,1.135.286a6.973,6.973,0,0,1-.256-2.2,7.331,7.331,0,0,1,.544-2.452,16.033,16.033,0,0,1,1.45-2.784c.459-.712.929-1.42,1.4-2.128l.626-.945a20.133,20.133,0,0,0,1.372-2.3A4.826,4.826,0,0,0,15.315.574.609.609,0,0,1,15.721.03a.609.609,0,0,1,.648.193l.213.219c.226.219.449.442.668.668q.443.461.877.929c.2.224.4.455.6.687l.029.031c.221.263.445.524.659.8.225.288.441.582.656.88.2.28.424.6.629.927.217.351.435.73.662,1.154a11.714,11.714,0,0,1,1.054,2.678,8.228,8.228,0,0,1,.143,3.713,7.932,7.932,0,0,1-.444,1.466c.571-.158,1.144-.312,1.716-.467l1.089-.293a20.3,20.3,0,0,0,2.547-.824,4.737,4.737,0,0,0,1.324-.765.591.591,0,0,1,1.022.433l.02.3c.022.315.044.63.057.949.022.424.035.851.044,1.275.005.3,0,.609,0,.912v.06c-.009.337-.016.677-.034,1.014-.023.364-.049.729-.087,1.093s-.075.734-.139,1.109c-.069.409-.157.837-.265,1.308a11.849,11.849,0,0,1-.975,2.707,8.277,8.277,0,0,1-2.346,2.883,8.544,8.544,0,0,1-2.937,1.428,10.565,10.565,0,0,1-2.333.37c-.3.01-.59.018-.878.018C19.735,27.879,19.536,27.875,19.339,27.87ZM13.667,16.847a7.158,7.158,0,0,1,1.538,2.067q.08-.16.168-.315-.1-.108-.193-.22a9.137,9.137,0,0,1-.669-.891A7.5,7.5,0,0,1,13.5,15.038a8.565,8.565,0,0,1,.426-4.983,8.137,8.137,0,0,0-1.117,2.108,6.109,6.109,0,0,0,0,4.016A6.979,6.979,0,0,1,13.667,16.847Z" transform="translate(2093.428 -115.642)" fill="none" stroke="#fff" stroke-width="1.5"/>
    <path id="Path_54" data-name="Path 54" d="M35.017,0c.005.287.008.563.019.841A49.835,49.835,0,0,1,39.319,45.16c-4.342,11.7-10.966,22.688-16.95,33.8C17.712,87.64,12.027,95.827,7.55,104.574,1.616,116.18-2.487,128.212,1.725,142.169c-1.844-13.211,3.182-23.611,9.745-33.391,4.981-7.42,10.95-14.169,16.085-21.491C34.142,77.9,41.275,68.7,46.514,58.573c10.6-20.551,5.5-44.882-11.5-58.573" transform="matrix(0.391, 0.921, -0.921, 0.391, 2164.692, -183.254)" fill="none" stroke="#fff" stroke-width="1.5"/>
  </g>
</svg>
